<svg xmlns="http://www.w3.org/2000/svg" width="325.68" height="261.844" viewBox="0 0 325.68 261.844">
  <g id="beautiful" transform="translate(0.25 -0.25)">
    <path id="Path_87" data-name="Path 87" d="M798.879,354.592a8.191,8.191,0,0,0-10.35,4.189c-.082.176-.164.351-.238.535a8.814,8.814,0,0,0-.344,1.183,8.193,8.193,0,0,1,11.126-7.5,8.069,8.069,0,0,1,1.819.984A8.19,8.19,0,0,0,787,360.061a11.739,11.739,0,0,0-15.6,1.78,10.542,10.542,0,0,0-4.591,9.748,44.146,44.146,0,0,0-6.485,5.653s-13.324,10.787-19.676,17.549-.016,8.776-.016,8.776,6.375.6,11.6.511a8.9,8.9,0,0,0,.831,6.336s-.831,7.625-3.213,8.386c-.894.285-.211.465.984.578l-.414.793a5.988,5.988,0,0,0-1.491-.055s-2.467,2.752-5.337,5.973c-1.8-.265-3.236-.375-3.2-.043.043.461,1.175.867,2.221,1.144-3.5,3.939-7.25,8.187-7.73,8.87-.921,1.32-23.089,22.1-29.323,31.83s-7.664,11.283-7.664,11.283,1.214,1.187,3.092,2.963c-2.026,5.411-6.852,17.627-10.966,22.784.144-.468-2.061-.281-4.47,2.132,0,0-.226.125-.625.328-2.1,1.085-8.968,4.427-12.149,3.56-3.787-1.031-5.7,3.9-3.916,4.771,1.932.953,4.907,3.553,9.842,3.771a25.055,25.055,0,0,0,6.223-.718c2.713-.586,5.021-1.249,6.079-.843,1.823.695,9.139.152,7.874-2s.269-6.168.269-6.168-.508.051-1.284.094c1.819-4.927,8.995-13.852,13.078-18.7,1.062.9,2.112,1.776,3.123,2.584,7.043,5.622,10.689,7.016,10.689,7.016s-.148-5.071,5.7-11.611c1.8-2.018,4.5-5.528,7.359-9.413,1.909,9.764,4.837,22.6,7.211,23.768a7.036,7.036,0,0,0,2.5.55c1.515,3.865,3.978,10.314,5.809,15.987h10.088c-2.217-5.7-4.326-12.317-4.427-17.178,1.936-.383,3.268-.7,3.268-.7,2.651-6.93-2.007-27.523-4.064-34.164s1.218-10.818,1.218-10.818c5.052-9.545,4.806-14.55,4.1-16.819a34.974,34.974,0,0,0,1.113-3.346c.344-1.249.691-2.37,1.035-3.373,6.91.105,14.008.141,14.937-.125a4.078,4.078,0,0,0,1.874-1.726A11.567,11.567,0,0,0,784.4,425.7a176.7,176.7,0,0,0-.387-21.874c2.374-6.145,3.631-13.289.012-17.514,0,0-.492-.277-1.238-.64a21.7,21.7,0,0,1,.234-4.728,11.56,11.56,0,0,0,2.444-.906c.168-.086.332-.172.5-.265.328-.184.644-.387.953-.6a11.652,11.652,0,0,0,4.208-5.4c.074-.2.145-.39.207-.586.023-.066.039-.133.059-.2.043-.133.082-.262.117-.39.02-.082.039-.16.055-.238.031-.117.062-.238.086-.355.019-.086.031-.168.047-.254.023-.113.043-.226.063-.344.016-.086.023-.172.035-.258.016-.109.031-.223.043-.336.012-.09.016-.176.023-.262.012-.113.02-.223.023-.332.008-.09.008-.176.012-.266,0-.109.008-.219.008-.328,0-.09,0-.176,0-.265v0l.1.059a8.214,8.214,0,0,0,5.364,5.489,8.232,8.232,0,0,1-4.193-4.954,8.1,8.1,0,0,0,1.679.41,8.208,8.208,0,0,0,8.011,2.834,8.228,8.228,0,0,1-6.582-2.756,8.345,8.345,0,0,0,1.53-.207,8.066,8.066,0,0,0,1.491-.5,8.286,8.286,0,0,0,2.573-1.808,8.122,8.122,0,0,0,1-1.265,8.375,8.375,0,0,0,.746-1.484c.07-.184.125-.371.18-.558a8.183,8.183,0,0,0-4.907-10.029ZM689.66,505.354a.884.884,0,0,1,.187-.223C689.785,505.206,689.722,505.284,689.66,505.354Zm78.065-114.291c-5.208,1.456-14.617,4.045-17.869,4.693,2.69-5.79,12.489-13.976,12.489-13.976a20.7,20.7,0,0,0,6.262-5.239,10.472,10.472,0,0,0,3.182,3.022c.012,1.21,0,2.456-.074,3.639-.511-.09-.816-.07-.789.191.086.871.371,5.579-1.643,6.481a6.238,6.238,0,0,0-1.558,1.191ZM771.41,425.8c-.511.008-1.218.035-2.057.082,1.331-1.948,3.627-5.243,5.575-7.726.226,3.217.293,5.341.293,5.341S775.615,425.739,771.41,425.8Z" transform="translate(-478.982 -258.927)" fill="#f2f2f2" stroke="#707070" stroke-width="0.5"/>
    <circle id="Ellipse_18" data-name="Ellipse 18" cx="11.712" cy="11.712" r="11.712" transform="translate(218.821 72.92)" fill="#2f2e41" stroke="#707070" stroke-width="0.5"/>
    <path id="Path_88" data-name="Path 88" d="M768.415,308.717a11.712,11.712,0,0,1-16.545,16.545,11.712,11.712,0,1,0,16.545-16.545Z" transform="translate(-530 -232.748)" stroke="#707070" stroke-width="0.5" opacity="0.1"/>
    <circle id="Ellipse_19" data-name="Ellipse 19" cx="8.198" cy="8.198" r="8.198" transform="translate(234.437 63.941)" fill="#2f2e41" stroke="#707070" stroke-width="0.5"/>
    <path id="Path_89" data-name="Path 89" d="M792.258,305.019a8.193,8.193,0,0,1-8.169-7.613c-.014.194-.03.388-.03.586a8.2,8.2,0,0,0,16.4,0c0-.2-.016-.391-.03-.586A8.193,8.193,0,0,1,792.258,305.019Z" transform="translate(-549.623 -225.853)" stroke="#707070" stroke-width="0.5" opacity="0.1"/>
    <path id="Path_90" data-name="Path 90" d="M781.23,281.491a8.17,8.17,0,0,1,10.251-7.929,8.2,8.2,0,1,0-5.276,15.468A8.2,8.2,0,0,1,781.23,281.491Z" transform="translate(-547.184 -210.914)" fill="#2f2e41" stroke="#707070" stroke-width="0.5"/>
    <path id="Path_91" data-name="Path 91" d="M799.483,296.658a8.17,8.17,0,0,1,7.362-10.665,8.2,8.2,0,1,0-.334,16.339,8.2,8.2,0,0,1-7.028-5.674Z" transform="translate(-558.035 -218.872)" fill="#2f2e41" stroke="#707070" stroke-width="0.5"/>
    <path id="Path_92" data-name="Path 92" d="M802.976,294.852a8.17,8.17,0,0,1,1.146-12.909,8.2,8.2,0,1,0,7.765,14.38,8.2,8.2,0,0,1-8.912-1.471Z" transform="translate(-558.89 -216.426)" fill="#2f2e41" stroke="#707070" stroke-width="0.5"/>
    <path id="Path_93" data-name="Path 93" d="M772.347,350.851s-12.493,8.589-11.712,4.685c.437-2.194-1.222-6.859-2.76-10.521-1.195-2.85-2.315-5.095-2.315-5.095l13.664-3.514a21.689,21.689,0,0,0,.051,6.266,20.063,20.063,0,0,0,3.072,8.179Z" transform="translate(-532.249 -249.627)" fill="#ffc1c7" stroke="#707070" stroke-width="0.5"/>
    <path id="Path_94" data-name="Path 94" d="M565.781,350.062,565,356.7l10.931-1.171,1.952-7.027Z" transform="translate(-344.422 -212.14)" fill="#ffc1c7" stroke="#707070" stroke-width="0.5"/>
    <path id="Path_95" data-name="Path 95" d="M706.423,381.689l-2.342,2.733s-6.637.39-3.123-8.2,12.1-23.424,12.1-23.424,5.466-13.274,7.418-8.2-3.9,11.712-3.9,11.712-7.418,13.274-6.637,19.13Z" transform="translate(-498.338 -253.917)" fill="#ffc1c7" stroke="#707070" stroke-width="0.5"/>
    <path id="Path_96" data-name="Path 96" d="M706.423,381.689l-2.342,2.733s-6.637.39-3.123-8.2,12.1-23.424,12.1-23.424,5.466-13.274,7.418-8.2-3.9,11.712-3.9,11.712-7.418,13.274-6.637,19.13Z" transform="translate(-498.338 -253.917)" stroke="#707070" stroke-width="0.5" opacity="0.1"/>
    <path id="Path_97" data-name="Path 97" d="M812.56,668.091s17.568,18.739,19.52,24.205S828.957,706.35,827,706.741s-2.342,2.733,0,3.123,10.151-3.123,12.493-7.027,3.9-6.637,5.075-7.418,1.952-4.294,0-6.246-17.959-16.787-19.911-25.767Z" transform="translate(-566.996 -448.965)" fill="#ffc1c7" stroke="#707070" stroke-width="0.5"/>
    <path id="Path_98" data-name="Path 98" d="M858.644,725.307s-.781,7.808-7.808,4.294c0,0-3.123-3.514-3.123.781s-1.562,11.712-6.637,14.445,3.514,3.9,4.685,3.514,8.979-3.123,10.15-5.466,5.466-7.808,7.027-9.76S862.549,724.526,858.644,725.307Z" transform="translate(-583.41 -486.661)" fill="#2f2e41" stroke="#707070" stroke-width="0.5"/>
    <path id="Path_99" data-name="Path 99" d="M773,512.406s5.466,2.342,3.514,18.349c0,0-1.562,5.075,2.733,10.541s16.007,23.034,16.007,30.452c0,0-11.322,7.808-15.616,7.418s-21.082-29.28-21.082-29.28Z" transform="translate(-534.078 -356.916)" fill="#2f2e41" stroke="#707070" stroke-width="0.5"/>
    <path id="Path_100" data-name="Path 100" d="M773,512.406s5.466,2.342,3.514,18.349c0,0-1.562,5.075,2.733,10.541s16.007,23.034,16.007,30.452c0,0-11.322,7.808-15.616,7.418s-21.082-29.28-21.082-29.28Z" transform="translate(-534.078 -356.916)" stroke="#707070" stroke-width="0.5" opacity="0.1"/>
    <path id="Path_101" data-name="Path 101" d="M660.932,665.406s.781,28.109-3.9,31.232c0,0-6.246,8.979-10.15,8.979s-3.514,3.123-1.562,3.514,2.342,1.562,10.151-1.562,11.712-3.9,12.883-3.9,2.342-1.562,0-6.246,6.637-28.5,6.637-28.5Z" transform="translate(-464.168 -450.184)" fill="#ffc1c7" stroke="#707070" stroke-width="0.5"/>
    <path id="Path_102" data-name="Path 102" d="M665.695,738.266a28.08,28.08,0,0,1-6.637,2.342c-2.733.39-4.27-2.374-3.7-3.334s-1.769-.18-3.331,3.334c0,0-6.637,7.808-10.541,8.2s-3.935,5.676-1.952,5.856c2.147.2,5.856,1.562,10.541,0s8.979-5.856,10.931-5.856,8.589-3.123,6.637-4.685S665.695,738.266,665.695,738.266Z" transform="translate(-460.733 -493.764)" fill="#2f2e41" stroke="#707070" stroke-width="0.5"/>
    <path id="Path_103" data-name="Path 103" d="M734.375,388.013s-16.4,12.256-18.739,13.427-5.075,10.15-5.075,10.15,14.054-3.9,16.4-6.637S734.375,388.013,734.375,388.013Z" transform="translate(-504.817 -281.086)" fill="#ffc1c7" stroke="#707070" stroke-width="0.5"/>
    <path id="Path_104" data-name="Path 104" d="M734.375,388.013s-16.4,12.256-18.739,13.427-5.075,10.15-5.075,10.15,14.054-3.9,16.4-6.637S734.375,388.013,734.375,388.013Z" transform="translate(-504.817 -281.086)" stroke="#707070" stroke-width="0.5" opacity="0.1"/>
    <circle id="Ellipse_20" data-name="Ellipse 20" cx="10.541" cy="10.541" r="10.541" transform="translate(217.65 76.043)" fill="#ffc1c7" stroke="#707070" stroke-width="0.5"/>
    <path id="Path_105" data-name="Path 105" d="M704.107,476.878s-7.027,18.349-7.418,19.911S683.026,525.679,680.683,537s-3.123,13.274-3.123,13.274,11.712,5.075,20.3,7.808,12.493,2.733,12.493,2.733-1.952-4.685,1.171-12.883,9.37-34.356,9.37-34.356,4.995-15.421,3.9-26.547a41.559,41.559,0,0,1-.094-8.633,3.377,3.377,0,0,0-3.576-3.769C715.337,475.023,705.968,475.815,704.107,476.878Z" transform="translate(-484.701 -333.881)" fill="#2f2e41" stroke="#707070" stroke-width="0.5"/>
    <path id="Path_106" data-name="Path 106" d="M762.053,367.008s-5.075-.781-7.418.39-6.246.781-5.856,1.562,2.342,5.075.781,6.637-3.123,8.589-6.246,10.541-7.808,8.589-1.562,14.445c0,0,1.952,7.418,0,8.979S748,408,748,408a17,17,0,0,1,5.075,1.952c2.733,1.562,8.979,1.171,8.979,1.171s2.733-12.1,4.294-14.835S771.423,372.083,762.053,367.008Z" transform="translate(-521.955 -268.126)" fill="#6c63ff" stroke="#707070" stroke-width="0.5"/>
    <path id="Path_107" data-name="Path 107" d="M754.357,383.325s-8.979,1.562-3.123,10.541a156.666,156.666,0,0,1,10.931,21.082s1.171,1.952-2.733,3.514-19.13,8.979-19.13,8.979-10.15,1.562-9.76,2.342,4.294,0,4.294,0-2.733,7.418,1.952,7.418,7.027-4.685,7.027-4.685,25.376-8.979,26.938-10.15a4.077,4.077,0,0,0,1.133-2.28,11.572,11.572,0,0,0-.364-6.358C768.888,405.961,760.25,382.016,754.357,383.325Z" transform="translate(-516.992 -278.197)" fill="#ffc1c7" stroke="#707070" stroke-width="0.5"/>
    <path id="Path_108" data-name="Path 108" d="M762.477,308.961a8.589,8.589,0,1,0-11.362,11.362,8.589,8.589,0,1,0,11.361-11.361Z" transform="translate(-526.458 -229.815)" fill="#2f2e41" stroke="#707070" stroke-width="0.5"/>
    <ellipse id="Ellipse_21" data-name="Ellipse 21" cx="0.976" cy="2.538" rx="0.976" ry="2.538" transform="translate(224.287 87.755)" fill="#ffc1c7" stroke="#707070" stroke-width="0.5"/>
    <circle id="Ellipse_22" data-name="Ellipse 22" cx="8.589" cy="8.589" r="8.589" transform="translate(122.587 11.431)" fill="#6c63ff" stroke="#707070" stroke-width="0.5"/>
    <rect id="Rectangle_44" data-name="Rectangle 44" width="12.493" height="12.493" transform="translate(16.007 119.964)" fill="#6c63ff" stroke="#707070" stroke-width="0.5"/>
    <rect id="Rectangle_45" data-name="Rectangle 45" width="89.012" height="51.924" rx="16.004" transform="translate(70.663 60.622)" fill="#f2f2f2" stroke="#707070" stroke-width="0.5"/>
    <circle id="Ellipse_23" data-name="Ellipse 23" cx="35.136" cy="35.136" r="35.136" transform="translate(10.346 25.681)" fill="#f2f2f2" stroke="#707070" stroke-width="0.5"/>
    <circle id="Ellipse_24" data-name="Ellipse 24" cx="35.136" cy="35.136" r="35.136" transform="translate(16.202 22.167)" fill="none" stroke="#3f3d56" stroke-miterlimit="10" stroke-width="0.5"/>
    <rect id="Rectangle_46" data-name="Rectangle 46" width="89.012" height="51.924" rx="14.693" transform="translate(61.879 51.838)" fill="none" stroke="#3f3d56" stroke-miterlimit="10" stroke-width="0.5"/>
    <circle id="Ellipse_25" data-name="Ellipse 25" cx="8.589" cy="8.589" r="8.589" transform="translate(126.1 7.918)" fill="none" stroke="#3f3d56" stroke-miterlimit="10" stroke-width="0.5"/>
    <rect id="Rectangle_47" data-name="Rectangle 47" width="12.493" height="12.493" transform="translate(17.959 117.621)" fill="none" stroke="#3f3d56" stroke-miterlimit="10" stroke-width="0.5"/>
    <rect id="Rectangle_48" data-name="Rectangle 48" width="12.493" height="12.493" transform="translate(0 2.842)" fill="#6c63ff" stroke="#707070" stroke-width="0.5"/>
    <rect id="Rectangle_49" data-name="Rectangle 49" width="12.493" height="12.493" transform="translate(1.952 0.5)" fill="none" stroke="#3f3d56" stroke-miterlimit="10" stroke-width="0.5"/>
    <line id="Line_1" data-name="Line 1" x2="161.237" transform="translate(156.357 261.485)" fill="none" stroke="#3f3d56" stroke-miterlimit="10" stroke-width="0.5"/>
  </g>
</svg>
