<svg xmlns="http://www.w3.org/2000/svg" xmlns:xlink="http://www.w3.org/1999/xlink" width="316.827" height="216.255" viewBox="0 0 316.827 216.255">
  <defs>
    <linearGradient id="linear-gradient" y1="0.5" x2="1" y2="0.5" gradientUnits="objectBoundingBox">
      <stop offset="0" stop-color="gray" stop-opacity="0.251"/>
      <stop offset="0.54" stop-color="gray" stop-opacity="0.122"/>
      <stop offset="1" stop-color="gray" stop-opacity="0.102"/>
    </linearGradient>
    <linearGradient id="linear-gradient-2" x1="0.5" y1="1" x2="0.5" y2="0" xlink:href="#linear-gradient"/>
    <linearGradient id="linear-gradient-4" x1="0.5" y1="1" x2="0.5" y2="0" xlink:href="#linear-gradient"/>
  </defs>
  <g id="developerfriendly" transform="translate(0.25 0.447)">
    <g id="Group_21" data-name="Group 21" transform="translate(20.834 132.211)" opacity="0.7">
      <path id="Path_65" data-name="Path 65" d="M217.577,550.787a7.678,7.678,0,0,0-3.045-8.141,22.942,22.942,0,0,1-2.038-1.319,7.33,7.33,0,0,1-2.045-3.429c-1.022-3.067-1.345-6.512-3.136-9.284-1.628-2.524-4.806-3.256-7.623-3.513a6.038,6.038,0,0,0-3.041.287c-1.57.71-2.318,2.563-2.39,4.285a48.877,48.877,0,0,0,.488,5.138,5.9,5.9,0,0,1-1.462,4.777c-1.267,1.166-3.084,1.3-4.767,1.537a31.568,31.568,0,0,0-6.46,1.605c-1.755.651-3.712,1.794-3.794,3.657-.068,1.524,1.162,2.742,2.087,3.956a10.081,10.081,0,0,1,2.006,8.053c-.6,2.791-2.605,5.278-2.953,8.157a3.543,3.543,0,0,0,.29,2.156,3.944,3.944,0,0,0,1.088,1.156c1.084.837,2.279,1.511,3.321,2.419,2.139,1.9,3.3,4.647,4.191,7.362.085.26.163.527.244.788h-2.1a7.815,7.815,0,0,0-7.773,7.763h0a7.815,7.815,0,0,0,7.779,7.779h21a7.815,7.815,0,0,0,7.779-7.779h0a7.815,7.815,0,0,0-7.779-7.779h-5.757c1.361-1.823,2.784-3.536,4.884-4.233s4.643-.29,6.291-1.755a4.934,4.934,0,0,0,1.429-2.83,8.424,8.424,0,0,0-.921-5.594c-.651-1.182-1.628-2.253-1.84-3.582a5.325,5.325,0,0,1,.795-3.318C213.914,556.219,216.724,553.975,217.577,550.787Z" transform="translate(-178.262 -525.04)" stroke="#707070" stroke-width="0.5" fill="url(#linear-gradient)"/>
    </g>
    <path id="Path_66" data-name="Path 66" d="M201.578,530.3a5.721,5.721,0,0,0-2.895.274,4.575,4.575,0,0,0-2.279,4.08,45.638,45.638,0,0,0,.466,4.884,5.659,5.659,0,0,1-1.394,4.559c-1.208,1.12-2.931,1.241-4.539,1.462a30.061,30.061,0,0,0-6.151,1.537c-1.67.609-3.533,1.706-3.611,3.484-.065,1.452,1.107,2.605,1.99,3.767a9.627,9.627,0,0,1,1.908,7.669c-.56,2.657-2.468,5.028-2.813,7.769a3.374,3.374,0,0,0,.277,2.051,3.755,3.755,0,0,0,1.039,1.1c1.032.8,2.185,1.439,3.162,2.305,2.038,1.8,3.139,4.425,3.992,7.011a56.769,56.769,0,0,1,1.954,7.773c1.755-1.13,4.025-1.114,5.9-2.032,3.989-1.954,5.331-7.62,9.541-9.03,1.993-.651,4.422-.277,5.992-1.67a4.7,4.7,0,0,0,1.361-2.693,8.023,8.023,0,0,0-.879-5.327c-.628-1.127-1.553-2.146-1.752-3.422a5.066,5.066,0,0,1,.755-3.159c1.514-2.752,4.191-4.884,5.008-7.922a7.313,7.313,0,0,0-2.9-7.753,21.622,21.622,0,0,1-1.954-1.257A7.206,7.206,0,0,1,211.8,542.5c-.977-2.931-1.28-6.187-2.986-8.841C207.283,531.238,204.262,530.538,201.578,530.3Z" transform="translate(-159.39 -396.334)" fill="#4db6ac" stroke="#707070" stroke-width="0.5"/>
    <path id="Path_67" data-name="Path 67" d="M231.476,530.73s3.7,49.629-5.926,58.147" transform="translate(-189.318 -396.666)" fill="none" stroke="#535461" stroke-miterlimit="10" stroke-width="0.5" opacity="0.6"/>
    <rect id="Rectangle_38" data-name="Rectangle 38" width="34.816" height="14.816" rx="7.408" transform="translate(22.159 186.655)" fill="#6c63ff" stroke="#707070" stroke-width="0.5"/>
    <path id="Path_68" data-name="Path 68" d="M181.2,589.74s9.469-1.1,21.032,5.93" transform="translate(-159.409 -436.418)" fill="none" stroke="#535461" stroke-miterlimit="10" stroke-width="0.5" opacity="0.6"/>
    <path id="Path_69" data-name="Path 69" d="M245.22,604.8a24.455,24.455,0,0,1,16.561-10.368" transform="translate(-202.582 -439.624)" fill="none" stroke="#535461" stroke-miterlimit="10" stroke-width="0.5" opacity="0.6"/>
    <path id="Path_70" data-name="Path 70" d="M184,650.489s13.126-2.224,19.157,1.482" transform="translate(-161.297 -476.983)" fill="none" stroke="#535461" stroke-miterlimit="10" stroke-width="0.5" opacity="0.6"/>
    <path id="Path_71" data-name="Path 71" d="M240.57,668.735a21.959,21.959,0,0,1,14.6-.586" transform="translate(-199.447 -488.67)" fill="none" stroke="#535461" stroke-miterlimit="10" stroke-width="0.5" opacity="0.6"/>
    <g id="Group_22" data-name="Group 22" transform="translate(264.894 171.852)" opacity="0.7">
      <path id="Path_72" data-name="Path 72" d="M954.471,652.12v-5.34h-26.7v24.689a5.21,5.21,0,0,0,5.21,5.21h16.281a5.21,5.21,0,0,0,5.21-5.21V666a6.939,6.939,0,1,0,0-13.878Zm0,11.211V654.79a4.272,4.272,0,1,1,0,8.541Z" transform="translate(-927.77 -646.78)" stroke="#707070" stroke-width="0.5" fill="url(#linear-gradient-2)"/>
    </g>
    <path id="Path_73" data-name="Path 73" d="M994.017,665.74a6.337,6.337,0,1,0,6.337,6.337A6.337,6.337,0,0,0,994.017,665.74Zm0,10.234a3.908,3.908,0,1,1,3.907-3.908,3.908,3.908,0,0,1-3.907,3.908Z" transform="translate(-703.278 -487.714)" fill="#6c63ff" stroke="#707070" stroke-width="0.5"/>
    <path id="Path_74" data-name="Path 74" d="M994.017,665.74a6.337,6.337,0,1,0,6.337,6.337A6.337,6.337,0,0,0,994.017,665.74Zm0,10.234a3.908,3.908,0,1,1,3.907-3.908,3.908,3.908,0,0,1-3.907,3.908Z" transform="translate(-703.278 -487.714)" stroke="#707070" stroke-width="0.5" opacity="0.1"/>
    <path id="Path_75" data-name="Path 75" d="M818,531.78h24.37V555.9a3.175,3.175,0,0,1-3.175,3.175H821.181a3.175,3.175,0,0,1-3.175-3.175V531.78Z" transform="translate(-551.637 -358.625)" fill="#6c63ff" stroke="#707070" stroke-width="0.5"/>
    <rect id="Rectangle_39" data-name="Rectangle 39" width="316.327" height="10.723" transform="translate(0 200.449)" fill="#e0e0e0" stroke="#707070" stroke-width="0.5"/>
    <g id="Group_23" data-name="Group 23" transform="translate(101.052 -0.01)" opacity="0.7">
      <path id="Path_76" data-name="Path 76" d="M531.624,247.7c-3.39-12.305-22.612-21.293-37.073-23.286v-10.8h.046V213.2a36.125,36.125,0,0,0,21.817-22.869,39.028,39.028,0,0,0,2.328-5.021c1.543-.563,2.709-3.107,2.709-6.167a10.767,10.767,0,0,0-.436-3.093,39.537,39.537,0,0,0,.29-4.7,39.134,39.134,0,0,0-12.927-29.1,7.637,7.637,0,0,0,.124-1.915c-.326-5.057-5.728-8.492-10.788-8.72a10.68,10.68,0,0,0,1.8-11.28c-3.227,4.7-9.853,5.21-15.555,5.239a4.656,4.656,0,0,0,2.136-6.581c-5.959,7.988-17.584,9.469-24.669,16.473a20.794,20.794,0,0,0-3.836,5.233,39.153,39.153,0,0,0-14.757,30.651,39.59,39.59,0,0,0,.283,4.653,10.745,10.745,0,0,0-.449,3.136c0,3.074,1.176,5.627,2.732,6.187a39.038,39.038,0,0,0,2.338,5.037A36.119,36.119,0,0,0,469.4,213.155v11.26c-14.516,1.954-33.891,11.016-37.252,23.419-2.9,10.713-6,22.468-7.542,29.385,13.211,9.284,40.928,14.731,58.287,14.731,16.506,0,43.481-4.92,56.3-13.37C537.847,270.973,534.652,258.687,531.624,247.7Z" transform="translate(-424.61 -118.99)" stroke="#707070" stroke-width="0.5" fill="url(#linear-gradient-2)"/>
    </g>
    <path id="Path_77" data-name="Path 77" d="M487.139,505c15.923,0,41.944-4.744,54.314-12.9-1.338-7.32-4.422-19.17-7.343-29.772-3.719-13.5-27.2-22.865-41.2-22.865h-13.5c-14.051,0-37.561,9.414-41.234,22.976-2.8,10.335-5.786,21.683-7.275,28.346C443.632,499.74,470.382,505,487.139,505Z" transform="translate(-327.8 -335.116)" fill="#6c63ff" stroke="#707070" stroke-width="0.5"/>
    <circle id="Ellipse_13" data-name="Ellipse 13" cx="37.851" cy="37.851" r="37.851" transform="translate(120.667 15.708)" fill="#72351c" stroke="#707070" stroke-width="0.5"/>
    <path id="Path_78" data-name="Path 78" d="M449.29,261.31h24.253v19.4a12.126,12.126,0,0,1-12.126,12.126h0a12.126,12.126,0,0,1-12.126-12.126v-19.4Z" transform="translate(-302.989 -176.227)" stroke="#707070" stroke-width="0.5" opacity="0.1"/>
    <path id="Path_79" data-name="Path 79" d="M452.791,258.55h17.294a3.478,3.478,0,0,1,3.478,3.478v15.923a12.126,12.126,0,0,1-12.126,12.126h0a12.126,12.126,0,0,1-12.126-12.126V262.028A3.478,3.478,0,0,1,452.791,258.55Z" transform="translate(-303.003 -174.366)" fill="#fda57d" stroke="#707070" stroke-width="0.5"/>
    <path id="Path_80" data-name="Path 80" d="M563.71,402.4a34.9,34.9,0,0,0,24.253.068V399.49H563.71Z" transform="translate(-417.364 -308.162)" stroke="#707070" stroke-width="0.5" opacity="0.1"/>
    <circle id="Ellipse_14" data-name="Ellipse 14" cx="34.761" cy="34.761" r="34.761" transform="translate(123.758 26.343)" fill="#fda57d" stroke="#707070" stroke-width="0.5"/>
    <path id="Path_81" data-name="Path 81" d="M525,191.453s14.653,29.736,55.975,12.462l-9.606-15.083-17.063-6.122Z" transform="translate(-391.259 -161.971)" stroke="#707070" stroke-width="0.5" opacity="0.1"/>
    <path id="Path_82" data-name="Path 82" d="M525,190.106s14.653,29.736,55.975,12.462l-9.606-15.086-17.063-6.122Z" transform="translate(-391.259 -161.061)" fill="#72351c" stroke="#707070" stroke-width="0.5"/>
    <path id="Path_83" data-name="Path 83" d="M523.14,152.369a20.082,20.082,0,0,1,4.979-8.1c6.838-6.76,18.046-8.186,23.8-15.894a4.49,4.49,0,0,1-2.061,6.346c5.5-.036,11.892-.518,15-5.054a10.3,10.3,0,0,1-1.739,10.879c4.884.221,10.094,3.536,10.42,8.411.212,3.256-1.827,6.327-4.5,8.19s-5.9,2.719-9.082,3.419C550.669,162.623,517.068,171.2,523.14,152.369Z" transform="translate(-389.513 -125.332)" fill="#72351c" stroke="#707070" stroke-width="0.5"/>
    <path id="Path_84" data-name="Path 84" d="M563.881,307.586h-.925l-17.929,15.956c-17.258-8.092-29.958,0-29.958,0l-18.8-15.3-1.9.238a34.759,34.759,0,1,0,69.512-.9ZM529.065,329.67c-6.763,0-12.243-1.371-12.243-3.061s5.484-3.061,12.243-3.061,12.244,1.371,12.244,3.061S535.829,329.67,529.065,329.67Z" transform="translate(-370.603 -246.18)" fill="#72351c" stroke="#707070" stroke-width="0.5"/>
    <ellipse id="Ellipse_15" data-name="Ellipse 15" cx="3.233" cy="6.063" rx="3.233" ry="6.063" transform="translate(120.508 55.008)" fill="#fda57d" stroke="#707070" stroke-width="0.5"/>
    <ellipse id="Ellipse_16" data-name="Ellipse 16" cx="3.233" cy="6.063" rx="3.233" ry="6.063" transform="translate(190.042 55.008)" fill="#fda57d" stroke="#707070" stroke-width="0.5"/>
    <g id="Group_24" data-name="Group 24" transform="translate(90.902 122.982)" opacity="0.7">
      <rect id="Rectangle_40" data-name="Rectangle 40" width="134.523" height="77.463" rx="14.5" stroke="#707070" stroke-width="0.5" fill="url(#linear-gradient-4)"/>
    </g>
    <rect id="Rectangle_41" data-name="Rectangle 41" width="129.652" height="76.034" rx="26.84" transform="translate(93.338 124.412)" fill="#535461" stroke="#707070" stroke-width="0.5"/>
    <circle id="Ellipse_17" data-name="Ellipse 17" cx="4.386" cy="4.386" r="4.386" transform="translate(153.777 158.046)" fill="#fff" stroke="#707070" stroke-width="0.5"/>
    <rect id="Rectangle_42" data-name="Rectangle 42" width="289.518" height="4.386" transform="translate(13.403 211.172)" fill="#e0e0e0" stroke="#707070" stroke-width="0.5"/>
    <rect id="Rectangle_43" data-name="Rectangle 43" width="289.518" height="1.462" transform="translate(13.403 211.172)" stroke="#707070" stroke-width="0.5" opacity="0.1"/>
    <path id="Path_85" data-name="Path 85" d="M983.831,650.78v22.54a4.751,4.751,0,0,1-4.751,4.751h2.436a4.751,4.751,0,0,0,4.751-4.751V650.78Z" transform="translate(-697.478 -477.625)" stroke="#707070" stroke-width="0.5" opacity="0.1"/>
    <path id="Path_86" data-name="Path 86" d="M944.634,593.717a1.435,1.435,0,0,0-1.078.547c-.326.58.26,1.234.788,1.628a10.511,10.511,0,0,1,2.67,2.485,3.115,3.115,0,0,1,.146,3.445c-.948,1.286-3.207,1.56-3.426,3.142-.14,1.016.736,1.882,1.628,2.39,2.195,1.257,5.024,1.592,6.617,3.559a5.127,5.127,0,0,1,3.582-2.468c1.452-.335,2.989-.309,4.477-.534a1.547,1.547,0,0,0,1.234-.651c.417-.843-.768-1.856-.361-2.7.326-.651,1.224-.6,1.892-.853a2.458,2.458,0,0,0,1.228-2.931,5.575,5.575,0,0,0-2.1-2.722,23.351,23.351,0,0,0-8.444-3.908A21.973,21.973,0,0,0,949,593.105,21.051,21.051,0,0,0,944.634,593.717Z" transform="translate(-673.458 -438.726)" fill="#eee" stroke="#707070" stroke-width="0.5"/>
  </g>
</svg>
