<svg xmlns="http://www.w3.org/2000/svg" width="432.931" height="252.47" viewBox="0 0 432.931 252.47"><g id="hackable" transform="translate(0.25 0.25)"><circle id="Ellipse_1" cx="122.832" cy="122.832" r="122.832" fill="#f2f2f2" stroke="#707070" stroke-width=".5" data-name="Ellipse 1" transform="translate(16.826 0)"/><path id="Path_1" fill="#3f3d56" stroke="#707070" stroke-width=".5" d="M518.431,621.572a5.756,5.756,0,0,1-.071.892c-3,18.408-98.626,33.181-216.144,33.181S89.075,640.871,86.072,622.464a5.751,5.751,0,0,1-.072-.892c0-.084,0-.172.008-.257,0-.046,0-.088,0-.135a.206.206,0,0,0,0-.05c.017-.189.042-.37.076-.555,1.371-7.526,18.235-14.441,45.742-19.981,22.5-4.53,52.115-8.144,86.2-10.415,25.87-1.725,54.315-2.68,84.177-2.68,24.028,0,47.138.618,68.726,1.754h.008q6.777.36,13.352.787c30.005,1.943,56.632,4.917,78.086,8.64a265.342,265.342,0,0,1,33.311,7.664h0c13.654,4.3,21.706,9.128,22.635,14.231.034.185.059.366.076.555a.213.213,0,0,0,0,.051c0,.046,0,.088,0,.135C518.431,621.4,518.431,621.488,518.431,621.572Z" data-name="Path 1" transform="translate(-86 -403.675)"/><ellipse id="Ellipse_2" cx="69.408" cy="10.096" stroke="#707070" stroke-width=".5" data-name="Ellipse 2" opacity=".1" rx="69.408" ry="10.096" transform="translate(141.339 230.516)"/><path id="Path_2" stroke="#707070" stroke-width=".5" d="M888.363,609.844c-2.427.694-5.161,1.338-8.161,1.927-12.35,2.431-29.2,3.925-47.757,3.925-20.73,0-39.31-1.864-51.9-4.812-10.449-2.448-16.776-5.633-16.776-9.128,0-3.071,4.9-5.914,13.2-8.215,30.005,1.943,56.632,4.917,78.086,8.64A265.327,265.327,0,0,1,888.363,609.844Z" data-name="Path 2" opacity=".1" transform="translate(-478.665 -407.174)"/><path id="Path_3" stroke="#707070" stroke-width=".5" d="M372.357,605.38c0,6.364-39.928,11.526-89.178,11.526S194,611.744,194,605.38a1.839,1.839,0,0,1,.4-1.1c22.5-4.53,52.115-8.144,86.2-10.415q1.281-.006,2.57,0C332.428,593.858,372.357,599.016,372.357,605.38Z" data-name="Path 3" opacity=".1" transform="translate(-148.57 -407.359)"/><rect id="Rectangle_6" width="17.535" height="56.613" fill="#6c63ff" stroke="#707070" stroke-width=".5" data-name="Rectangle 6" transform="translate(175.19 140.908)"/><rect id="Rectangle_7" width="17.535" height="83.166" fill="#6c63ff" stroke="#707070" stroke-width=".5" data-name="Rectangle 7" transform="translate(117.575 114.355)"/><rect id="Rectangle_8" width="17.535" height="83.166" fill="#6c63ff" stroke="#707070" stroke-width=".5" data-name="Rectangle 8" transform="translate(60.46 114.355)"/><rect id="Rectangle_9" width="17.535" height="56.613" fill="#6c63ff" stroke="#707070" stroke-width=".5" data-name="Rectangle 9" transform="translate(89.018 114.355)"/><rect id="Rectangle_10" width="17.535" height="16.533" fill="#6c63ff" stroke="#707070" stroke-width=".5" data-name="Rectangle 10" transform="translate(146.132 114.355)"/><rect id="Rectangle_11" width="17.535" height="56.613" fill="#8a8b8c" stroke="#707070" stroke-width=".5" data-name="Rectangle 11" transform="translate(146.132 140.908)"/><rect id="Rectangle_12" width="46.092" height="16.533" fill="#6c63ff" stroke="#707070" stroke-width=".5" data-name="Rectangle 12" transform="translate(175.19 114.355)"/><path id="Path_4" fill="#6c63ff" stroke="#707070" stroke-width=".5" d="M842.144,410.53a41.821,41.821,0,0,1,30.612,12.552,41.217,41.217,0,0,1,9.184,13.814,45.156,45.156,0,0,1,.04,32.983,39.345,39.345,0,0,1-9.145,13.585,44.044,44.044,0,0,1-14.235,9.49,42.666,42.666,0,0,1-16.453,3.291,41.652,41.652,0,0,1-16.263-3.253,44.1,44.1,0,0,1-23.3-23.3A42.733,42.733,0,0,1,812.069,423,40.518,40.518,0,0,1,842.144,410.53Zm.155,7.73a33.212,33.212,0,0,0-24.721,10.255,36.847,36.847,0,0,0-7.768,11.518,33.984,33.984,0,0,0,0,26.632,36.28,36.28,0,0,0,19.172,19.06,34.782,34.782,0,0,0,26.673-.038,37.016,37.016,0,0,0,11.669-7.729q10.025-9.8,10.023-24.568a35.191,35.191,0,0,0-2.6-13.469,34.269,34.269,0,0,0-7.573-11.328A33.923,33.923,0,0,0,842.3,418.261Zm-.537,28.012-5.742,2.985a5.891,5.891,0,0,0-2.257-2.679,5.084,5.084,0,0,0-2.488-.765q-5.738,0-5.74,7.576a9.4,9.4,0,0,0,1.453,5.509,4.907,4.907,0,0,0,4.287,2.068,5.366,5.366,0,0,0,5.282-3.674l5.279,2.679a13.223,13.223,0,0,1-20.511,3.214q-3.52-3.52-3.52-9.794,0-6.123,3.559-9.719a12.126,12.126,0,0,1,8.993-3.6q7.961,0,11.4,6.2Zm24.72,0-5.664,2.985a5.886,5.886,0,0,0-2.258-2.679,5.206,5.206,0,0,0-2.564-.765q-5.74,0-5.742,7.577a9.388,9.388,0,0,0,1.454,5.509A4.9,4.9,0,0,0,856,460.967a5.364,5.364,0,0,0,5.278-3.674l5.357,2.679a13.156,13.156,0,0,1-4.742,4.937,13.456,13.456,0,0,1-15.8-1.722q-3.488-3.52-3.485-9.794,0-6.123,3.56-9.719a12.118,12.118,0,0,1,8.991-3.6q7.96,0,11.328,6.2Z" data-name="Path 4" transform="translate(-499.287 -301.148)"/><path id="Path_5" stroke="#707070" stroke-width=".5" d="M664.908,626.46c0,20.5-28.577,14.16-63.566,14.16S538.2,646.961,538.2,626.46s28.573-24.96,63.562-24.96S664.908,605.958,664.908,626.46Z" data-name="Path 5" opacity=".1" transform="translate(-347.981 -411.786)"/><path id="Path_6" fill="#3f3d56" stroke="#707070" stroke-width=".5" d="M664.908,614.46c0,20.5-28.577,14.16-63.566,14.16S538.2,634.961,538.2,614.46s28.573-24.96,63.562-24.96S664.908,593.958,664.908,614.46Z" data-name="Path 6" transform="translate(-347.981 -404.834)"/><path id="Path_7" fill="#2f2e41" stroke="#707070" stroke-width=".5" d="M816.249,560.951l1.444,5.958a.372.372,0,0,1-.007.2l-6.552,20.475a.372.372,0,0,1-.724-.071l-.906-7.976a.373.373,0,0,1,.016-.157l6.014-18.456a.372.372,0,0,1,.716.028Z" data-name="Path 7" transform="translate(-505.159 -388.13)"/><path id="Path_8" fill="#f2f2f2" stroke="#707070" stroke-width=".5" d="M730.32,412.038l1.334,5.112-5.779,18.669-1.333-5.779Z" data-name="Path 8" transform="translate(-419.761 -238.713)"/><path id="Path_9" fill="#2f2e41" stroke="#707070" stroke-width=".5" d="M755.007,614.5c.222.667,23.114-.222,23.337-.445a4.824,4.824,0,0,0,.489-.889c.209-.445.4-.889.4-.889l-.889-7.2-22.67-.8s-.567,6.1-.682,8.89A6.663,6.663,0,0,0,755.007,614.5Z" data-name="Path 9" transform="translate(-473.563 -413.396)"/><path id="Path_10" stroke="#707070" stroke-width=".5" d="M704.51,458.005l.444,6.223h-10v-6.223Z" data-name="Path 10" opacity=".1" transform="translate(-402.619 -265.344)"/><path id="Path_11" stroke="#707070" stroke-width=".5" d="M679.07,462.744l.06-.012-.282,2.679h-5.556v-2.667Z" data-name="Path 11" opacity=".1" transform="translate(-390.07 -268.083)"/><path id="Path_12" stroke="#707070" stroke-width=".5" d="M755.007,626.747c.222.667,23.114-.222,23.337-.444a4.821,4.821,0,0,0,.489-.889H754.991a6.664,6.664,0,0,0,.016,1.333Z" data-name="Path 12" opacity=".1" transform="translate(-473.563 -425.641)"/><path id="Path_13" fill="#2f2e41" stroke="#707070" stroke-width=".5" d="M663.4,563.232h6.223l15.335-6s10.89-4.445,10,4-2.445,19.78-2.445,19.78-4.89-2.223-7.557-1.556-.889-13.557-.889-13.557-21.781,10.446-23.781,9.112-2.445-10.668-2.445-10.668Z" data-name="Path 13" transform="translate(-417.298 -385.462)"/><path id="Path_14" stroke="#707070" stroke-width=".5" d="M663.4,563.232h6.223l15.335-6s10.89-4.445,10,4-2.445,19.78-2.445,19.78-4.89-2.223-7.557-1.556-.889-13.557-.889-13.557-21.781,10.446-23.781,9.112-2.445-10.668-2.445-10.668Z" data-name="Path 14" opacity=".1" transform="translate(-417.298 -385.462)"/><path id="Path_15" fill="#a0616a" stroke="#707070" stroke-width=".5" d="M686.676,526.777l7.531,10.821,17.558,14.669s16.225,3.778,14,6.445-15.78-2.667-15.78-2.667-20.225-14.669-20.892-15.78-8-11.557-8-11.557Z" data-name="Path 15" transform="translate(-430.766 -368.496)"/><path id="Path_16" stroke="#707070" stroke-width=".5" d="M686.676,526.777l7.531,10.821,17.558,14.669s16.225,3.778,14,6.445-15.78-2.667-15.78-2.667-20.225-14.669-20.892-15.78-8-11.557-8-11.557Z" data-name="Path 16" opacity=".1" transform="translate(-430.766 -368.496)"/><circle id="Ellipse_3" cx="10.001" cy="10.001" r="10.001" fill="#a0616a" stroke="#707070" stroke-width=".5" data-name="Ellipse 3" transform="translate(244.771 126.429)"/><path id="Path_17" fill="#a0616a" stroke="#707070" stroke-width=".5" d="M669.108,484.1s-3.334,5.779-4,8.89-10-6.223-10-6.223l-1.222-3.223s8.779-4.112,8.112-7.445S669.108,484.1,669.108,484.1Z" data-name="Path 17" transform="translate(-415.002 -338.781)"/><path id="Path_18" fill="#d0cde1" stroke="#707070" stroke-width=".5" d="M673.635,506.005l4.89,9.557s-1.111,4.667-2.889,5.112S666.3,514.9,666.3,514.9Z" data-name="Path 18" transform="translate(-422.196 -356.462)"/><path id="Path_19" fill="#a0616a" stroke="#707070" stroke-width=".5" d="M679.61,537.178l9.112,12L710.5,565.4s15.78,3.334,12.224,5.779-13.78-2.222-13.78-2.222-22-11.779-26.67-16.669-13.335-13.113-13.335-13.113Z" data-name="Path 19" transform="translate(-423.726 -374.522)"/><path id="Path_20" fill="#2f2e41" stroke="#707070" stroke-width=".5" d="M638,579.644l2.667,4.223,15.917-5.008a12.515,12.515,0,0,1,10.42,1.257c2.778,1.75,4.556,4.528.556,8.64-8,8.223-13.335,3.778-13.335,3.778s-26.893,12.668-31.338,6.445-4.667-9.335-4.667-9.335S635.334,578.977,638,579.644Z" data-name="Path 20" transform="translate(-394.341 -398.318)"/><path id="Path_21" fill="#d0cde1" stroke="#707070" stroke-width=".5" d="M712.356,613.677s7.112,4.667-1.333,6.89a22.377,22.377,0,0,1-14.669-.889s-7.334,0-7.334-3.778,2.445-4.223,2.445-4.223l7.557,1.111S708.133,610.343,712.356,613.677Z" data-name="Path 21" transform="translate(-435.358 -417.682)"/><path id="Path_22" fill="#2f2e41" stroke="#707070" stroke-width=".5" d="M681.644,452.147a7.458,7.458,0,0,0,2.1.751,1.913,1.913,0,0,0,1.933-.828,2.6,2.6,0,0,0,.22-1.176,5.235,5.235,0,0,0-.835-3.484c-.492-.6-1.211-.98-1.72-1.567a7.4,7.4,0,0,1-.87-1.421c-.991-1.861-2.458-3.65-4.5-4.186a9.753,9.753,0,0,0-2.625-.2l-5.135.072a8.939,8.939,0,0,0-2.47.266c-1.653.5-2.856,1.889-3.958,3.219a20.13,20.13,0,0,0-2.27,3.133,10.994,10.994,0,0,0-1.3,5.386,5.04,5.04,0,0,0,.185,1.425,7.909,7.909,0,0,0,.56,1.23c.963,1.891,1.535,4.254.45,6.078a11.678,11.678,0,0,0,4.99-3.39,9.344,9.344,0,0,1,1.733-2.094,1.735,1.735,0,0,1,2.423.2,2.17,2.17,0,0,1,.245,1.017,4.663,4.663,0,0,0,.281,1.717,1.287,1.287,0,0,0,1.4.8c.968-.273.875-1.758,1.62-2.432.566-.512,1.439-.414,2.166-.647a3.215,3.215,0,0,0,1.845-1.817c.275-.618.271-2.234.792-2.568C679.552,451.21,681.038,451.877,681.644,452.147Z" data-name="Path 22" transform="translate(-418.666 -318.232)"/><path id="Path_23" fill="#d0cde1" stroke="#707070" stroke-width=".5" d="M629.366,492.016a2.638,2.638,0,0,1,1.373,0c1.427.383,4.625,1.4,5.311,2.94.889,2,4,5.112,4,5.112s4.223,4.223,3.334,7.112-4.223,6.223-4.223,6.223.889,13.78-3.556,17.336-6.223,1.111-6.223,4.445-13.78,13.78-16.447,7.334c0,0,1.333-12,.889-16.225C613.387,522.136,614.028,496.169,629.366,492.016Z" data-name="Path 23" transform="translate(-391.279 -348.306)"/><path id="Path_24" fill="#d0cde1" stroke="#707070" stroke-width=".5" d="M654.653,504.673s13.557,10,11.113,14.224c0,0-8.223,4-10,3.778s-8.668-8-10.446-8.668S642.651,501.339,654.653,504.673Z" data-name="Path 24" transform="translate(-409.437 -355.352)"/><path id="Path_25" fill="#2f2e41" stroke="#707070" stroke-width=".5" d="M558.654,525.2a6.494,6.494,0,0,0-4.451,4.561c-.2,1.012-.077,2.064-.246,3.082-.391,2.361-2.244,4.163-3.953,5.838s-3.474,3.62-3.6,6.01c-.137,2.616,1.761,5.068,1.433,7.667-.381,3.02-3.571,4.977-4.36,7.917a7.616,7.616,0,0,0,1.18,5.811,16.631,16.631,0,0,0,9.162,6.748,38.174,38.174,0,0,0,11.476,1.5c4.716.049,9.836-.355,13.379-3.468a10.718,10.718,0,0,0,3.558-6.978c.337-3.605-1.168-7.331-.13-10.8.653-2.183,2.291-4.177,2.047-6.443-.239-2.215-2.174-3.786-3.5-5.575a22.662,22.662,0,0,1-2.728-5.59l-2.522-6.656a7.727,7.727,0,0,0-2.145-3.544c-2.068-1.608-5.394-1.292-7.812-.96C563.2,524.619,560.811,524.467,558.654,525.2Z" data-name="Path 25" transform="translate(-350.931 -366.912)"/><path id="Path_26" fill="#ffb9b9" stroke="#707070" stroke-width=".5" d="M566.832,572.441s1.118,3.633-7.266,7.825.838,8.664.838,8.664l9.781,2.236s10.061-1.4,11.179-3.074,3.074-7.266,2.515-8.1a13.064,13.064,0,0,0-1.4-1.677s-6.707-1.118-6.428-4.192S566.832,572.441,566.832,572.441Z" data-name="Path 26" transform="translate(-358.319 -394.767)"/><path id="Path_27" stroke="#707070" stroke-width=".5" d="M566.832,572.441s1.118,3.633-7.266,7.825.838,8.664.838,8.664l9.781,2.236s10.061-1.4,11.179-3.074,3.074-7.266,2.515-8.1a13.064,13.064,0,0,0-1.4-1.677s-6.707-1.118-6.428-4.192S566.832,572.441,566.832,572.441Z" data-name="Path 27" opacity=".1" transform="translate(-358.319 -394.767)"/><circle id="Ellipse_4" cx="8.943" cy="8.943" r="8.943" fill="#ffb9b9" stroke="#707070" stroke-width=".5" data-name="Ellipse 4" transform="translate(205.019 165.517)"/><path id="Path_28" fill="#ff6584" stroke="#707070" stroke-width=".5" d="M563.835,596.149s-10.77-.788-10.974-8.219c0,0-3.837-.445-4.955.673s-4.751,1.956-4.751,4.751,6.148,11.179,6.148,11.179,3.354,11.179,1.956,13.135-1.677,6.987-1.677,6.987,13.973-1.118,16.209,0,11.179,1.118,11.738,0-.559-15.091-.559-15.091a10.911,10.911,0,0,0,1.956-7.266l6.707-7.825s-2.515-7.546-6.428-7.546c0,0-5.31-1.4-5.45-.7S576.412,594.751,563.835,596.149Z" data-name="Path 28" transform="translate(-350.852 -402.825)"/><path id="Path_29" fill="#ffb9b9" stroke="#707070" stroke-width=".5" d="M532.525,663.928s2.515,3.913,8.943,4.751,7.546-1.4,6.987-1.956-7.266-3.074-7.266-3.074l-3.913-3.074Z" data-name="Path 29" transform="translate(-344.693 -446.011)"/><path id="Path_30" fill="#ffb9b9" stroke="#707070" stroke-width=".5" d="M622.25,660.574l-7.266,4.192s-9.5-.559-5.869,2.236,10.34,1.677,10.34,1.677l6.428-3.074Z" data-name="Path 30" transform="translate(-388.586 -446.011)"/><path id="Path_31" fill="#2f2e41" stroke="#707070" stroke-width=".5" d="M551.523,677.848s-6.707,16.489,1.4,19,30.462,1.956,35.493-1.4,6.428-7.825,5.589-9.222-6.428-5.31-10.34-5.589S551.523,677.848,551.523,677.848Z" data-name="Path 31" transform="translate(-354.19 -456.018)"/><path id="Path_32" stroke="#707070" stroke-width=".5" d="M551.523,677.848s-6.707,16.489,1.4,19,30.462,1.956,35.493-1.4,6.428-7.825,5.589-9.222-6.428-5.31-10.34-5.589S551.523,677.848,551.523,677.848Z" data-name="Path 32" opacity=".05" transform="translate(-354.19 -456.018)"/><path id="Path_33" fill="#2f2e41" stroke="#707070" stroke-width=".5" d="M600.245,675.691s23.675-8.57,23.4,1.77S608.549,690.6,608.549,690.6l-4.471.559-24.593.838s.838-4.471-1.118-5.03c0,0,6.428-1.677,6.707-1.956s16.209-5.869,17.327-6.148,4.471-2.515,6.987-2.236c0,0,2.795-2.236,5.869-1.677l-8.664.559Z" data-name="Path 33" transform="translate(-371.251 -452.837)"/><path id="Path_34" stroke="#707070" stroke-width=".5" d="M600.245,675.691s23.675-8.57,23.4,1.77S608.549,690.6,608.549,690.6l-4.471.559-24.593.838s.838-4.471-1.118-5.03c0,0,6.428-1.677,6.707-1.956s16.209-5.869,17.327-6.148,4.471-2.515,6.987-2.236c0,0,2.795-2.236,5.869-1.677l-8.664.559Z" data-name="Path 34" opacity=".1" transform="translate(-371.251 -452.837)"/><path id="Path_35" fill="#2f2e41" stroke="#707070" stroke-width=".5" d="M534.434,527.449l2.985,6.81,18.165-6.428,1.4-3.633-4.751-.839-9.551,1.677-4.143,1.118Z" data-name="Path 35" transform="translate(-309.623 -303.207)"/><path id="Path_36" stroke="#707070" stroke-width=".5" d="M534.434,527.449l2.985,6.81,18.165-6.428,1.4-3.633-4.751-.839-9.551,1.677-4.143,1.118Z" data-name="Path 36" opacity=".1" transform="translate(-309.623 -303.207)"/><path id="Path_37" fill="#2f2e41" stroke="#707070" stroke-width=".5" d="M521.61,683.892s5.31,6.707,11.458,8.384,9.5-.559,9.5-.559l-1.956-7.825-.838-5.03-3.633-2.515-7.266-3.354-8.664-2.795s-3.633-.559-3.633,0,3.354,8.943,3.354,8.943Z" data-name="Path 37" transform="translate(-335.456 -451.442)"/><path id="Path_38" fill="#f2f2f2" stroke="#707070" stroke-width=".5" d="M543.819,711.671s1.118,8.1,2.515,8.664,5.589-.559,6.707-1.118,4.918-3.138,4.918-3.138S544.657,711.112,543.819,711.671Z" data-name="Path 38" transform="translate(-351.236 -475.588)"/><path id="Path_39" fill="#ffb9b9" stroke="#707070" stroke-width=".5" d="M514.62,563.223l5.31.838-.559,6.427-7.406-1.8Z" data-name="Path 39" transform="translate(-296.605 -326.302)"/><path id="Path_40" fill="#f2f2f2" stroke="#707070" stroke-width=".5" d="M610.674,714.04s-2.489,2.962.027,4.639l1.677,1.4s5.589,1.118,6.148,1.677,2.795-.838,2.795-.838.279-8.384,0-8.943-3.633-1.118-3.913-.559-3.633,1.4-5.589.838Z" data-name="Path 40" transform="translate(-389.332 -475.33)"/><path id="Path_41" fill="#2f2e41" stroke="#707070" stroke-width=".5" d="M523.44,671.221s-19.563-11.458-22.637-7.266-6.428,10.061,2.515,14.532,36.89,13.694,36.89,13.694,4.192-6.428,4.192-8.1c0,0-14.812-6.707-17.327-7.266s-12.576-6.987-13.973-7.546a16.218,16.218,0,0,1-3.354-2.236Z" data-name="Path 41" transform="translate(-324.43 -447.435)"/><path id="Path_42" fill="#ff6584" stroke="#707070" stroke-width=".5" d="M535.782,600.117l-1.118.838s-2.515,6.428-2.795,10.061-3.633,14.812-3.354,16.209a5.738,5.738,0,0,0,2.236,3.913s2.236-5.03,6.148-4.192l4.751-17.327Z" data-name="Path 42" transform="translate(-342.361 -410.985)"/><path id="Path_43" fill="#ff6584" stroke="#707070" stroke-width=".5" d="M631.511,600.117l2.236,2.515a24.153,24.153,0,0,1,1.4,4.192c0,.838,2.795,13.135,3.074,13.694s1.4,7.546,0,9.222a12.567,12.567,0,0,1-3.913,2.795s1.677-5.869-3.633-6.148l.559-2.236-5.03-16.768Z" data-name="Path 43" transform="translate(-398.964 -410.985)"/><path id="Path_44" fill="#3f3d56" stroke="#707070" stroke-width=".5" d="M547.141,640.984V655.7a3.539,3.539,0,0,0,3.487,3.539l30.786.456A3.539,3.539,0,0,0,585,656.3l.566-14.722a3.539,3.539,0,0,0-3.485-3.675l-31.352-.454a3.539,3.539,0,0,0-3.59,3.539Z" data-name="Path 44" transform="translate(-353.161 -432.611)"/><ellipse id="Ellipse_5" cx="9.626" cy="5.183" fill="#2f2e41" stroke="#707070" stroke-width=".5" data-name="Ellipse 5" rx="9.626" ry="5.183" transform="translate(204.86 163.806)"/><circle id="Ellipse_6" cx="2.236" cy="2.236" r="2.236" fill="#f2f2f2" stroke="#707070" stroke-width=".5" data-name="Ellipse 6" transform="translate(210.608 213.865)"/></g></svg>