<svg xmlns="http://www.w3.org/2000/svg" xmlns:xlink="http://www.w3.org/1999/xlink" width="336.778" height="286.52" viewBox="0 0 336.778 286.52"><defs><linearGradient id="linear-gradient" x1=".5" x2=".5" y1="1" gradientUnits="objectBoundingBox"><stop offset="0" stop-color="gray" stop-opacity=".251"/><stop offset=".54" stop-color="gray" stop-opacity=".122"/><stop offset="1" stop-color="gray" stop-opacity=".102"/></linearGradient><linearGradient id="linear-gradient-4" x1=".5" x2=".5" xlink:href="#linear-gradient"/></defs><g id="lightandcached" transform="translate(0.338 0.25)"><g id="Group_11" data-name="Group 11" opacity=".5" transform="translate(18.667)"><rect id="Rectangle_14" width="119.286" height="180.314" fill="url(#linear-gradient)" stroke="#707070" stroke-width=".5" data-name="Rectangle 14" rx="4.5"/></g><rect id="Rectangle_15" width="116.228" height="176.668" fill="#f2f2f2" stroke="#707070" stroke-width=".5" data-name="Rectangle 15" rx="4.5" transform="translate(20.194 1.324)"/><g id="Group_12" data-name="Group 12" opacity=".5" transform="translate(31.819 33.87)"><rect id="Rectangle_16" width="23.245" height="20.922" fill="#6c63ff" stroke="#707070" stroke-width=".5" data-name="Rectangle 16" rx="4.5"/></g><rect id="Rectangle_17" width="62.763" height="2.326" fill="#e0e0e0" stroke="#707070" stroke-width=".5" data-name="Rectangle 17" rx="1.163" transform="translate(62.039 33.87)"/><rect id="Rectangle_18" width="52.173" height="2.326" fill="#e0e0e0" stroke="#707070" stroke-width=".5" data-name="Rectangle 18" rx="1.163" transform="translate(62.039 40.842)"/><g id="Group_13" data-name="Group 13" opacity=".5" transform="translate(31.819 71.832)"><rect id="Rectangle_19" width="23.245" height="20.922" fill="#6c63ff" stroke="#707070" stroke-width=".5" data-name="Rectangle 19" rx="4.5"/></g><rect id="Rectangle_20" width="62.763" height="2.326" fill="#e0e0e0" stroke="#707070" stroke-width=".5" data-name="Rectangle 20" rx="1.163" transform="translate(62.039 71.45)"/><rect id="Rectangle_21" width="62.763" height="2.326" fill="#e0e0e0" stroke="#707070" stroke-width=".5" data-name="Rectangle 21" rx="1.163" transform="translate(62.039 78.951)"/><g id="Group_14" data-name="Group 14" opacity=".5" transform="translate(31.819 107.031)"><rect id="Rectangle_22" width="23.245" height="20.922" fill="#6c63ff" stroke="#707070" stroke-width=".5" data-name="Rectangle 22" rx="4.5"/></g><rect id="Rectangle_23" width="62.763" height="2.326" fill="#e0e0e0" stroke="#707070" stroke-width=".5" data-name="Rectangle 23" rx="1.163" transform="translate(62.039 106.461)"/><rect id="Rectangle_24" width="6.975" height="2.326" fill="#e0e0e0" stroke="#707070" stroke-width=".5" data-name="Rectangle 24" rx="1.163" transform="translate(62.039 113.965)"/><g id="Group_15" data-name="Group 15" opacity=".5" transform="translate(92.894 65.313)"><rect id="Rectangle_25" width="117.498" height="105.988" fill="url(#linear-gradient)" stroke="#707070" stroke-width=".5" data-name="Rectangle 25" rx="4.5"/></g><rect id="Rectangle_26" width="114.066" height="102.659" fill="#fff" stroke="#707070" stroke-width=".5" data-name="Rectangle 26" rx="4.5" transform="translate(94.71 66.358)"/><g id="Group_16" data-name="Group 16" opacity=".5" transform="translate(105.91 87.832)"><rect id="Rectangle_27" width="24.508" height="22.057" fill="#6c63ff" stroke="#707070" stroke-width=".5" data-name="Rectangle 27" rx="4.5"/></g><rect id="Rectangle_28" width="66.17" height="2.451" fill="#e0e0e0" stroke="#707070" stroke-width=".5" data-name="Rectangle 28" rx="1.226" transform="translate(137.771 87.337)"/><rect id="Rectangle_29" width="66.17" height="2.451" fill="#e0e0e0" stroke="#707070" stroke-width=".5" data-name="Rectangle 29" rx="1.226" transform="translate(137.771 95.248)"/><rect id="Rectangle_30" width="100.483" height="2.451" fill="#e0e0e0" stroke="#707070" stroke-width=".5" data-name="Rectangle 30" rx="1.226" transform="translate(103.458 123.957)"/><rect id="Rectangle_31" width="100.483" height="2.451" fill="#e0e0e0" stroke="#707070" stroke-width=".5" data-name="Rectangle 31" rx="1.226" transform="translate(103.458 131.869)"/><rect id="Rectangle_32" width="100.483" height="2.451" fill="#e0e0e0" stroke="#707070" stroke-width=".5" data-name="Rectangle 32" rx="1.226" transform="translate(103.458 142.414)"/><rect id="Rectangle_33" width="75.975" height="2.451" fill="#e0e0e0" stroke="#707070" stroke-width=".5" data-name="Rectangle 33" rx="1.226" transform="translate(103.458 150.325)"/><g id="Group_17" data-name="Group 17" opacity=".5" transform="translate(0 111.378)"><path id="Path_45" fill="url(#linear-gradient)" stroke="#707070" stroke-width=".5" d="M342.232,341.211h0l.417-1.862-.585,1.82a181.984,181.984,0,0,0-46.668-6.294c-113.573-.671-166.4,99.7-166.4,99.7l107.629,56.787s13.2-40.938,60.087-39.6a80.71,80.71,0,0,1,9.633.842l-14.264,44.431a7.921,7.921,0,1,0,13.226,8.706h0v-.021a7.874,7.874,0,0,0,1.167-4,6.775,6.775,0,0,0-.025-.714l10.311-46.076c30.72,9.448,40.028,36.428,40.028,36.428l108.3-54.143S424.422,363.531,342.232,341.211Z" data-name="Path 45" transform="translate(-129 -334.871)"/></g><path id="Path_46" fill="#6c63ff" stroke="#707070" stroke-width=".5" d="M299.277,337.994C187.152,337.341,135,436.429,135,436.429l106.259,56.055s13.037-40.417,59.323-39.115a79.627,79.627,0,0,1,9.737.863l35.187-109.98A179.663,179.663,0,0,0,299.277,337.994Z" data-name="Path 46" transform="translate(-132.859 -225.5)"/><path id="Path_47" fill="#e0e0e0" stroke="#707070" stroke-width=".5" d="M661.567,355.54,626.38,465.531c38.4,5.834,49.583,38.241,49.583,38.241l106.912-53.447S742.7,377.575,661.567,355.54Z" data-name="Path 47" transform="translate(-448.92 -236.788)"/><path id="Path_48" fill="#535461" stroke="#707070" stroke-width=".5" d="M597.833,509.983l35.722-159.6L583.633,506.058a7.821,7.821,0,1,0,13.055,8.6h0v-.021a7.774,7.774,0,0,0,1.153-3.943A4.237,4.237,0,0,0,597.833,509.983Z" data-name="Path 48" transform="translate(-420.487 -233.469)"/><g id="Group_18" data-name="Group 18" opacity=".7" transform="translate(154.657 20.797)"><path id="Path_49" fill="url(#linear-gradient-4)" stroke="#707070" stroke-width=".5" d="M598.068,208.558l-.935-.175,1.845-6.779c2.9-21.764-8.067-23.973-12.181-24.048a13.524,13.524,0,0,0-1.445-.439v-2.569a13.637,13.637,0,0,0,10.186-11.011h.036c.653,0,1.185-1,1.185-2.223a3.084,3.084,0,0,0-.517-1.834q.071-.714.071-1.427a14.172,14.172,0,0,0-4.4-10.272,9.133,9.133,0,0,0-1.006-2.7c-1.01-1.784-2.69-3.632-2.005-5.562l-4.435.457-.043-2.922c-1.384.25-1.966,1.852-2.787,2.993-1.977,2.747-5.941,3.129-8.563,5.27-.892.714-2.9,2.94-2.515,4.392a14.15,14.15,0,0,0-2.7,8.338q0,.714.071,1.427a3.082,3.082,0,0,0-.517,1.834c0,1.227.532,2.223,1.185,2.223h.036a13.637,13.637,0,0,0,10.186,11.011v2.569a13.513,13.513,0,0,0-1.445.439c-4.114.075-15.085,2.269-12.181,24.048l1.845,6.779-.439.082a5.056,5.056,0,0,0-4.042,5.9l7.289,38.958a1.531,1.531,0,0,0,1.784,1.224l1.281-.239v.756a4.253,4.253,0,0,0-2.369,3.811v.482h8.592v-.482a4.253,4.253,0,0,0-2.073-3.65v-1.695l1.17-.218a1.531,1.531,0,0,0,1.224-1.784l-6.829-36.6h18.935l-6.822,36.6a1.531,1.531,0,0,0,1.224,1.784l1.17.218v1.695a4.253,4.253,0,0,0-2.073,3.65v.482h8.591v-.482a4.253,4.253,0,0,0-2.369-3.811V254.3l1.281.239a1.531,1.531,0,0,0,1.784-1.224l7.364-39.447a4.549,4.549,0,0,0-3.639-5.309Z" data-name="Path 49" transform="translate(-562.467 -137.05)"/></g><rect id="Rectangle_34" width="3.989" height="5.416" fill="#fdb797" stroke="#707070" stroke-width=".5" data-name="Rectangle 34" transform="translate(165.451 143.296)"/><rect id="Rectangle_35" width="3.989" height="5.416" fill="#fdb797" stroke="#707070" stroke-width=".5" data-name="Rectangle 35" transform="translate(179.13 143.296)"/><rect id="Rectangle_36" width="26.22" height="9.405" fill="#4d8af0" stroke="#707070" stroke-width=".5" data-name="Rectangle 36" transform="translate(161.176 95.534)"/><g id="Group_19" data-name="Group 19" opacity=".05" transform="translate(161.176 95.534)"><rect id="Rectangle_37" width="26.22" height="9.405" stroke="#707070" stroke-width=".5" data-name="Rectangle 37"/></g><path id="Path_50" stroke="#707070" stroke-width=".5" d="M580.74,329.377s9.783,2.28,13.108,2.28,13.108-2.28,13.108-2.28V327.95H580.74Z" data-name="Path 50" opacity=".1" transform="translate(-419.564 -232.263)"/><path id="Path_51" fill="#f55f44" stroke="#707070" stroke-width=".5" d="M606.957,279.262s-9.783,2.28-13.108,2.28-13.108-2.28-13.108-2.28V263.588a13.108,13.108,0,0,1,13.108-13.108h0a13.108,13.108,0,0,1,13.108,13.108Z" data-name="Path 51" transform="translate(-419.564 -183.997)"/><path id="Path_52" fill="#fdb797" stroke="#707070" stroke-width=".5" d="M479.7,153.34h6.269v7.543a2.715,2.715,0,0,1-2.715,2.715h-.835a2.715,2.715,0,0,1-2.715-2.715V153.34Z" data-name="Path 52" transform="translate(-308.548 -94.352)"/><path id="Path_53" fill="#4d8af0" stroke="#707070" stroke-width=".5" d="M579.741,378.373l-5.619,1.049a1.845,1.845,0,0,1-2.141-1.474l-6.7-35.907a6.087,6.087,0,0,1,4.867-7.1l1.449-.271a1.845,1.845,0,0,1,2.141,1.474l7.493,40.078a1.845,1.845,0,0,1-1.488,2.155Z" data-name="Path 53" transform="translate(-409.553 -235.088)"/><path id="Path_54" fill="#4d8af0" stroke="#707070" stroke-width=".5" d="M626.182,378.38l5.619,1.049a1.845,1.845,0,0,0,2.141-1.474l6.815-36.507a5.48,5.48,0,0,0-4.381-6.39l-2.048-.382a1.845,1.845,0,0,0-2.141,1.474l-7.493,40.078a1.845,1.845,0,0,0,1.488,2.151Z" data-name="Path 54" transform="translate(-447.816 -235.094)"/><path id="Path_55" stroke="#707070" stroke-width=".5" d="M608.7,237.367a13.119,13.119,0,0,0,6.269,0V232.9H608.7Z" data-name="Path 55" opacity=".1" transform="translate(-437.548 -173.693)"/><circle id="Ellipse_7" cx="13.679" cy="13.679" r="13.679" fill="#333" stroke="#707070" stroke-width=".5" data-name="Ellipse 7" transform="translate(160.605 29.631)"/><circle id="Ellipse_8" cx="13.108" cy="13.108" r="13.108" fill="#fdb797" stroke="#707070" stroke-width=".5" data-name="Ellipse 8" transform="translate(161.176 33.338)"/><path id="Path_56" fill="#333" stroke="#707070" stroke-width=".5" d="M588.761,151.483c2.522-2.059,6.337-2.426,8.235-5.07.789-1.1,1.349-2.644,2.679-2.883l.039,2.812L604,145.9c-.66,1.855.956,3.639,1.93,5.352a8.8,8.8,0,0,1,1.138,4.142c-1.481.888-3.318-.082-4.967-.6a17.956,17.956,0,0,0-5-.6,10.365,10.365,0,0,0-2.576.143,12.988,12.988,0,0,0-2.141.781c-1.135.475-4.72,2.269-5.773,1.113C585.429,154.922,587.787,152.278,588.761,151.483Z" data-name="Path 56" transform="translate(-423.132 -120.421)"/><path id="Path_57" stroke="#707070" stroke-width=".5" d="M591.545,176.816a6.012,6.012,0,0,0,2.319.714,20.423,20.423,0,0,0,9.951-1.117,4.853,4.853,0,0,0,3.136,2.651,14.571,14.571,0,0,0,4.2.471,1.556,1.556,0,0,0,.9-.171c.631-.425.325-1.4-.043-2.066l-1.827-3.311a9.812,9.812,0,0,0-1.93-2.715,8.027,8.027,0,0,0-3.811-1.638,21.493,21.493,0,0,0-9.783.325C591.248,170.861,586.864,173.983,591.545,176.816Z" data-name="Path 57" opacity=".1" transform="translate(-425.202 -136.945)"/><path id="Path_58" fill="#333" stroke="#707070" stroke-width=".5" d="M591.545,176.016a6.012,6.012,0,0,0,2.319.714,20.423,20.423,0,0,0,9.951-1.117,4.853,4.853,0,0,0,3.136,2.651,14.571,14.571,0,0,0,4.2.471,1.556,1.556,0,0,0,.9-.171c.631-.425.325-1.4-.043-2.066l-1.827-3.311a9.811,9.811,0,0,0-1.93-2.715,8.027,8.027,0,0,0-3.811-1.638,21.493,21.493,0,0,0-9.783.325C591.248,170.054,586.864,173.187,591.545,176.016Z" data-name="Path 58" transform="translate(-425.202 -136.43)"/><ellipse id="Ellipse_9" cx="1.142" cy="2.137" fill="#fdb797" stroke="#707070" stroke-width=".5" data-name="Ellipse 9" rx="1.142" ry="2.137" transform="translate(186.112 44.31)"/><ellipse id="Ellipse_10" cx="1.142" cy="2.137" fill="#fdb797" stroke="#707070" stroke-width=".5" data-name="Ellipse 10" rx="1.142" ry="2.137" transform="translate(160.177 44.31)"/><path id="Path_59" fill="#f55f44" stroke="#707070" stroke-width=".5" d="M584.274,252.789s-16.584-2.583-13.162,23.066l1.995,7.353,5.709-.228s-3.7-8.563-1.427-14.25S584.274,252.789,584.274,252.789Z" data-name="Path 59" transform="translate(-413.072 -185.38)"/><path id="Path_60" fill="#f55f44" stroke="#707070" stroke-width=".5" d="M626.12,252.789s16.584-2.583,13.162,23.066l-1.995,7.353-5.709-.228s3.7-8.563,1.427-14.25S626.12,252.789,626.12,252.789Z" data-name="Path 60" transform="translate(-448.753 -185.38)"/><circle id="Ellipse_11" cx="3.136" cy="3.136" r="3.136" fill="#fdb797" stroke="#707070" stroke-width=".5" data-name="Ellipse 11" transform="translate(160.035 97.288)"/><circle id="Ellipse_12" cx="3.136" cy="3.136" r="3.136" fill="#fdb797" stroke="#707070" stroke-width=".5" data-name="Ellipse 12" transform="translate(182.833 97.288)"/><path id="Path_61" fill="#333" stroke="#707070" stroke-width=".5" d="M460.912,381.79h1.1a3.568,3.568,0,0,1,3.568,3.568v.978H457.33v-.978a3.568,3.568,0,0,1,3.582-3.568Z" data-name="Path 61" transform="translate(-294.159 -235.152)"/><path id="Path_62" fill="#333" stroke="#707070" stroke-width=".5" d="M500.052,381.79h1.1a3.568,3.568,0,0,1,3.568,3.568v.978H496.47v-.978a3.568,3.568,0,0,1,3.582-3.568Z" data-name="Path 62" transform="translate(-319.335 -235.152)"/><path id="Path_63" stroke="#707070" stroke-width=".5" d="M588.144,291.21s-1.142,5.983.856,8.563" data-name="Path 63" opacity=".1" transform="translate(-424.117 -209.522)"/><path id="Path_64" stroke="#707070" stroke-width=".5" d="M644.7,291.21s1.142,5.983-.856,8.563" data-name="Path 64" opacity=".1" transform="translate(-460.15 -209.522)"/></g></svg>